<svg width="36" height="29" viewBox="0 0 36 29" fill="none" xmlns="http://www.w3.org/2000/svg">
<path d="M0.333252 24H11.9999V27.3333H0.333252V24ZM0.333252 12.3333H15.3333V15.6666H0.333252V12.3333ZM0.333252 0.666626H33.6666V3.99996H0.333252V0.666626ZM31.4566 15.7085L33.3834 15.0566L35.0501 17.9433L33.5233 19.2851C33.6172 19.731 33.6666 20.193 33.6666 20.6666C33.6666 21.1403 33.6172 21.6023 33.5233 22.0481L35.0501 23.39L33.3834 26.2766L31.4566 25.6248C30.7724 26.2401 29.9604 26.7158 29.0651 27.0073L28.6666 29H25.3333L24.9348 27.0073C24.0394 26.7158 23.2274 26.2401 22.5433 25.6248L20.6164 26.2766L18.9498 23.39L20.4766 22.0481C20.3826 21.6023 20.3333 21.1403 20.3333 20.6666C20.3333 20.193 20.3826 19.731 20.4766 19.2851L18.9498 17.9433L20.6164 15.0566L22.5433 15.7085C23.2274 15.0931 24.0394 14.6175 24.9348 14.326L25.3333 12.3333H28.6666L29.0651 14.326C29.9604 14.6175 30.7724 15.0931 31.4566 15.7085ZM26.9999 24C28.8409 24 30.3333 22.5076 30.3333 20.6666C30.3333 18.8256 28.8409 17.3333 26.9999 17.3333C25.1589 17.3333 23.6666 18.8256 23.6666 20.6666C23.6666 22.5076 25.1589 24 26.9999 24Z" fill="white"/>
</svg>
