<svg width="40" height="40" viewBox="0 0 40 40" fill="none" xmlns="http://www.w3.org/2000/svg">
<path d="M25.5128 5.19737V1.9411C25.5128 1.76919 25.7154 1.67738 25.8446 1.79069L33.3284 8.34947C33.4193 8.42914 33.4193 8.57062 33.3284 8.65029L25.8446 15.2091C25.7154 15.3224 25.5128 15.2306 25.5128 15.0587V11.7615V5.19737Z" fill="white"/>
<path d="M5 19.9666V17.1974C5 10.57 10.3726 5.19737 17 5.19737H25.5128M25.5128 5.19737V1.9411C25.5128 1.76919 25.7154 1.67738 25.8446 1.79069L33.3284 8.34947C33.4193 8.42914 33.4193 8.57062 33.3284 8.65029L25.8446 15.2091C25.7154 15.3224 25.5128 15.2306 25.5128 15.0587V11.7615M25.5128 5.19737V11.7615M25.5128 11.7615H17.3077C15.4951 11.7615 14.0256 13.2309 14.0256 15.0435V15.0435" stroke="white" stroke-width="2" stroke-linecap="round"/>
<path d="M13.4872 34.7693V38.0256C13.4872 38.1975 13.2846 38.2893 13.1554 38.176L5.67162 31.6172C5.58072 31.5375 5.58072 31.3961 5.67162 31.3164L13.1554 24.7576C13.2846 24.6443 13.4872 24.7361 13.4872 24.908V28.2052V34.7693Z" fill="white"/>
<path d="M34 20.0001V22.7693C34 29.3967 28.6274 34.7693 22 34.7693H13.4872M13.4872 34.7693V38.0256C13.4872 38.1975 13.2846 38.2893 13.1554 38.176L5.67162 31.6172C5.58072 31.5375 5.58072 31.3961 5.67162 31.3164L13.1554 24.7576C13.2846 24.6443 13.4872 24.7361 13.4872 24.908V28.2052M13.4872 34.7693V28.2052M13.4872 28.2052H21.6923C23.5049 28.2052 24.9744 26.7358 24.9744 24.9232V24.9232" stroke="white" stroke-width="2" stroke-linecap="round"/>
</svg>
