<svg width="30" height="34" viewBox="0 0 30 34" fill="none" xmlns="http://www.w3.org/2000/svg">
<path d="M19.5 12V2.5H2.5V31.5H13.4758C13.4917 31.5 13.5074 31.5038 13.5215 31.5111L17.3429 33.4778C17.4362 33.5258 17.4021 33.6667 17.2972 33.6667H1.65567C0.741584 33.6667 0 32.9267 0 32.0137V1.98637C0 1.09222 0.747834 0.333374 1.67035 0.333374H19.9947L30 10.3334V12H19.5ZM15 15.3334H30V25.2484C30 26.8995 29.1645 28.4414 27.7735 29.3574L22.5 32.8297L17.2265 29.3574C15.8355 28.4414 15 26.8995 15 25.2484V15.3334ZM17 26.5L22.5 30.5L28 26.5V17H17V26.5Z" fill="white"/>
</svg>
