<svg width="35" height="36" viewBox="0 0 35 36" fill="none" xmlns="http://www.w3.org/2000/svg">
<path d="M30 12.3158H34.7368V14.2105H32.5262V34.1053H34.7368V36H0V34.1053H2.21045V14.2105H0V12.3158H4.73684V9.1579C4.73684 8.28587 5.44377 7.57895 6.31579 7.57895H16.421H17.3684H28.4211C29.2931 7.57895 30 8.28587 30 9.1579V12.3158ZM30 14.2105H4.73684V34.1053H9.47368V21.7895H11.6841V34.1053H15.7895V21.7895H18.3157V34.1053H22.1053V21.7895H24.4736V34.1053H30V14.2105ZM6.47361 9.47368V12.3158H28.2631V9.47368H6.47361Z" fill="white"/>
<path d="M23.9999 1.89474L17.3684 0V4.73684L23.9999 1.89474Z" fill="white"/>
<path d="M17.3684 7.57895V4.73684V0H16.421V7.57895H17.3684Z" fill="white"/>
</svg>
