<svg width="37" height="27" viewBox="0 0 37 27" fill="none" xmlns="http://www.w3.org/2000/svg">
<path d="M12.941 22C12.5366 24.8269 10.1055 27 7.16674 27C4.228 27 1.79684 24.8269 1.39247 22H0.529785V2.00004C0.529785 1.07957 0.848377 0.333374 1.76884 0.333374H24C24.9205 0.333374 25.5 1.07957 25.5 2.00004V5.33337H31.3334L36.3334 12.0929V22H32.9411C32.5366 24.8269 30.1054 27 27.1667 27C24.2281 27 21.7969 24.8269 21.3924 22H12.941ZM23.0001 2.5H2.99999L3.00007 17.0842C4.05884 16.0037 5.5345 15.3334 7.16674 15.3334C9.49374 15.3334 12 17 12.941 19.5H21.8947C21.8947 18.6667 22.5494 17.544 23.0001 17.0842V2.5ZM26.3334 13.6667H34.5V13L30.5 7.3767H26.3334V13.6667ZM27 25.5C29.5 25.5 31.5 24 31.5 21.1667C31.5 19.786 30 17.5 27 17.5C24 17.5 23.0001 19.786 23.0001 21.1667C23.0001 24 24.5 25.5 27 25.5ZM11.5 21.1667C11.5 19.786 10 17.0842 7.16674 17.0842C4 17.0842 3.00007 19.786 3.00007 21.1667C3 24 5.33348 25.3215 7.16674 25.3215C9 25.3215 11.5 24 11.5 21.1667Z" fill="white"/>
</svg>
