<svg width="96" height="99" viewBox="0 0 96 99" fill="none" xmlns="http://www.w3.org/2000/svg">
<path fill-rule="evenodd" clip-rule="evenodd" d="M66.4273 16.4572L29.3326 16.8784L11.6012 47.5901L28.592 81.9534L66.7191 82.1232L85.6273 49.3732L66.4273 16.4572ZM74.7535 65.8857L83.9536 49.9506L69.2484 49.8851L59.9342 66.0177L74.7535 65.8857ZM74.0799 67.0524L66.0506 80.9595L51.3454 80.894L59.2606 67.1844L74.0799 67.0524ZM57.9134 67.1964L50.0086 80.888L29.9559 80.7987L37.7053 67.3764L57.9134 67.1964ZM36.7032 66.7907L28.9929 80.1453L20.0275 62.0131L27.2703 49.4683L36.7032 66.7907ZM27.9504 48.2902L37.3834 65.6126L46.8568 49.2042L37.3184 32.2412L37.2154 32.2429L27.9504 48.2902ZM26.6198 48.2736L19.4092 60.7626L12.917 47.6324L19.789 35.7298L26.6198 48.2736ZM20.4692 34.5517L27.2999 47.0956L36.5387 31.0934L36.6717 31.0912L29.6632 18.6273L20.4692 34.5517ZM38.379 66.2096L58.587 66.0297L67.9116 49.8791L47.8589 49.7898L38.379 66.2096ZM67.734 48.7176L47.8651 48.6291L38.6375 32.219L57.9212 31.8946L67.734 48.7176ZM57.2506 30.745L37.9909 31.069L30.6557 18.0242L49.7043 17.8079L57.2506 30.745ZM51.0392 17.7927L58.5813 30.7226L73.2606 30.4757L65.765 17.6255L51.0392 17.7927ZM73.9311 31.6253L59.2518 31.8722L69.0813 48.7236L83.9432 48.7898L73.9311 31.6253Z" fill="url(#paint0_linear_79_1221)"/>
<defs>
<linearGradient id="paint0_linear_79_1221" x1="28.3392" y1="16.75" x2="66.0625" y2="84.0714" gradientUnits="userSpaceOnUse">
<stop stop-color="white"/>
<stop offset="1" stop-color="#3C3C3C"/>
</linearGradient>
</defs>
</svg>
