<svg width="80" height="50" viewBox="0 0 80 50" fill="none" xmlns="http://www.w3.org/2000/svg">
<path fill-rule="evenodd" clip-rule="evenodd" d="M42.0906 46.0951C41.414 46.4656 40.7139 46.8058 39.9915 47.1132C39.2756 46.8081 38.5797 46.4691 37.9051 46.0986C38.6295 45.6315 39.3281 45.1272 39.9985 44.5883C40.6698 45.1268 41.3682 45.6297 42.0906 46.0951ZM43.0706 45.5273C42.2778 45.0409 41.5137 44.5079 40.7822 43.9313C46.0266 39.348 49.3461 32.5666 49.3461 24.9999C49.3461 17.4302 46.024 10.6465 40.7761 6.06318C41.5004 5.49076 42.2603 4.95916 43.0528 4.4724C47.5171 7.20435 51.1255 11.4421 53.0498 16.7978C56.9879 27.758 52.5521 39.7244 43.0706 45.5273ZM43.0663 46.692C42.4924 47.0241 41.9015 47.3348 41.2943 47.6229C41.8719 47.8292 42.4611 48.014 43.061 48.1762C43.6551 48.0155 44.2447 47.8308 44.8283 47.6219C44.2284 47.3357 43.6406 47.0254 43.0663 46.692ZM46.1309 47.1111C45.4189 46.8063 44.7231 46.4668 44.0459 46.0943C53.6145 39.9432 58.0237 27.6835 53.9881 16.4518C52.0509 11.0605 48.4729 6.75469 44.0333 3.9024C44.708 3.5317 45.4043 3.1926 46.1203 2.88735C49.4818 4.31746 52.5666 6.55798 55.0718 9.5823C63.4798 19.7326 62.1708 34.8622 52.1547 43.3758C50.2923 44.9588 48.2598 46.2017 46.1309 47.1111ZM46.1324 48.1982C45.7654 48.3476 45.3959 48.4876 45.024 48.6183L45.0798 48.6283C45.4239 48.6898 45.7676 48.7434 46.1107 48.7892C46.4842 48.7397 46.8563 48.6813 47.2266 48.614C46.8582 48.4841 46.4934 48.3454 46.1324 48.1982ZM49.1755 48.1738C48.5866 48.0128 48.0055 47.8292 47.4335 47.6236C49.3186 46.7243 51.1213 45.5665 52.7926 44.1459C63.2311 35.2732 64.5927 19.5086 55.8337 8.93466C53.4548 6.06278 50.574 3.86916 47.4303 2.37498C48.0073 2.16906 48.5959 1.98459 49.1953 1.82265C51.1499 2.35432 53.0687 3.15054 54.9043 4.22405C66.2232 10.8438 70.11 25.5122 63.5672 36.9917C60.2939 42.7348 55.0332 46.5869 49.1755 48.1738ZM52.2579 48.7961C51.8804 48.7462 51.5052 48.6871 51.1325 48.6191C56.5482 46.7231 61.3405 42.918 64.4304 37.4966C71.2437 25.5425 67.2004 10.2569 55.3994 3.35525C54.0216 2.54941 52.5988 1.8935 51.1497 1.38251C51.1698 1.37887 51.1898 1.37526 51.2099 1.37167C51.5597 1.3092 51.909 1.25486 52.2578 1.20851C52.6065 1.25486 52.9559 1.30921 53.3057 1.37169C66.1703 3.6695 74.78 16.1033 72.5066 29.1642C70.6633 39.7533 62.237 47.4766 52.2579 48.7961ZM52.2579 49.8063C50.2623 50.0586 48.2078 50.0654 46.1311 49.8006C44.1039 50.0595 42.0386 50.0651 39.9839 49.8043C37.9565 50.0583 35.9084 50.0561 33.8894 49.8024C31.8168 50.069 29.748 50.0624 27.727 49.8035C26.7264 49.9286 25.7071 49.9931 24.6731 49.9931C11.0465 49.9931 0 38.8032 0 24.9999C0 11.1965 11.0465 0.00669852 24.6731 0.00669852C25.7071 0.00669852 26.7264 0.0711401 27.727 0.196275C29.7954 -0.0688664 31.8601 -0.06195 33.877 0.196242C35.9116 -0.0590174 37.967 -0.0563994 39.993 0.199631C42.0159 -0.058861 44.0767 -0.0651939 46.1271 0.193774C48.1239 -0.0587659 50.1797 -0.0654502 52.2578 0.199825C65.2248 -1.45557 77.3266 7.47868 79.6211 20.66C81.9873 34.2536 73.0268 47.2165 59.6073 49.6135C57.1151 50.0586 54.6443 50.108 52.2579 49.8063ZM56.1459 1.01748C67.0821 1.39442 76.6569 9.462 78.6367 20.8358C80.9101 33.8966 72.3005 46.3305 59.4358 48.6283C58.3395 48.8241 57.2473 48.94 56.1652 48.9802C64.8612 46.3784 71.8096 38.9996 73.491 29.34C75.6966 16.669 68.0609 4.54601 56.1459 1.01748ZM47.2431 1.38098C46.8685 1.31305 46.4932 1.2545 46.1175 1.20525C45.7458 1.25456 45.3763 1.31275 45.0093 1.37963C45.3849 1.51102 45.7579 1.65176 46.1278 1.80182C46.4947 1.653 46.8666 1.51263 47.2431 1.38098ZM44.8177 2.37849C44.2345 2.17046 43.6443 1.986 43.0488 1.82524C42.4559 1.98719 41.871 2.17215 41.2953 2.3793C41.8942 2.66432 42.4818 2.97361 43.0567 3.30642C43.6285 2.97462 44.2158 2.66487 44.8177 2.37849ZM42.0765 3.90642C41.3982 3.53445 40.7025 3.19608 39.992 2.89256C39.2825 3.19674 38.5889 3.53536 37.9138 3.90675C38.6338 4.37147 39.3284 4.87298 39.995 5.40867C40.6601 4.8737 41.3547 4.37197 42.0765 3.90642ZM39.2131 6.06461C38.4873 5.49137 37.7277 4.96006 36.9379 4.47427C31.3048 7.93185 27.114 13.7405 25.879 20.8358C24.1306 30.8801 28.8187 40.5535 36.9286 45.5312C37.7226 45.0434 38.4861 44.5095 39.2154 43.9333C35.0517 40.3028 32.053 35.248 31.0247 29.34C29.4591 20.3464 32.8516 11.6288 39.2131 6.06461ZM39.9992 43.2865C45.1046 38.8876 48.3461 32.3307 48.3461 24.9999C48.3461 17.6667 45.1024 11.1079 39.9941 6.70888C33.8094 12.042 30.4946 20.464 32.0091 29.1642C33.0075 34.8998 35.9373 39.7947 39.9992 43.2865ZM36.9303 46.6957C37.5016 47.0271 38.0884 47.3364 38.6897 47.6225C38.1051 47.8317 37.5177 48.0163 36.9285 48.1768C36.3395 48.0165 35.7538 47.8323 35.1727 47.6236C35.7722 47.3376 36.3584 47.0279 36.9303 46.6957ZM33.8737 47.1131C34.5856 46.8085 35.2796 46.4696 35.954 46.0984C27.78 40.8309 23.1077 30.9253 24.8945 20.66C26.1467 13.4664 30.3198 7.53777 35.9605 3.90494C35.2862 3.53357 34.5922 3.19443 33.8804 2.88958C29.279 4.84762 25.248 8.2897 22.5586 13.0082C16.0158 24.4878 19.9026 39.1561 31.2216 45.7759C32.0887 46.2831 32.9744 46.7284 33.8737 47.1131ZM38.6908 2.38161C38.0935 2.66681 37.5083 2.97584 36.9366 3.30774C36.3657 2.97585 35.7805 2.66642 35.1821 2.38064C35.7608 2.17389 36.3471 1.98992 36.9395 1.82913C37.5306 1.99054 38.1148 2.17491 38.6908 2.38161ZM39.9937 1.80526C40.3572 1.65692 40.7246 1.5172 41.0955 1.38629C40.7286 1.32009 40.3603 1.26265 39.9909 1.214C39.6231 1.2631 39.2567 1.3209 38.8919 1.3873C39.2625 1.51782 39.6299 1.65719 39.9937 1.80526ZM39.9789 48.7909C40.3552 48.7418 40.7306 48.6836 41.1049 48.6162C40.7291 48.4846 40.3579 48.3443 39.9915 48.1957C39.744 48.2961 39.494 48.3929 39.2417 48.4859C39.1197 48.5309 38.9977 48.5748 38.8755 48.6177C39.2427 48.6844 39.6106 48.7421 39.9789 48.7909ZM34.9807 48.6191C34.6094 48.4883 34.2399 48.3479 33.8725 48.198C33.5107 48.3453 33.1448 48.4842 32.7749 48.6144C33.1498 48.682 33.5263 48.7404 33.9038 48.7897C34.2628 48.7414 34.6218 48.6846 34.9807 48.6191ZM32.574 47.6239C31.9995 47.83 31.4149 48.0142 30.821 48.1757C26.277 46.9499 22.0471 44.3445 18.7943 40.4176C10.3863 30.2673 11.6953 15.1378 21.7114 6.62418C24.4545 4.29263 27.5665 2.69871 30.8124 1.82175C31.4089 1.98369 31.9962 2.16865 32.5732 2.37565C28.1615 4.46976 24.3162 7.90523 21.6954 12.5034C14.8821 24.4575 18.9254 39.7431 30.7264 46.6447C31.334 47.0001 31.9504 47.3264 32.574 47.6239ZM33.8755 1.80302C33.5103 1.65424 33.1409 1.51404 32.7673 1.38269C33.1383 1.31593 33.5104 1.25823 33.8834 1.20957C34.2522 1.25902 34.6193 1.31722 34.9844 1.38405C34.6117 1.51469 34.2419 1.65439 33.8755 1.80302ZM27.7427 48.7931C28.1163 48.7441 28.4871 48.6862 28.8551 48.6197C24.7737 47.1918 21.0099 44.6598 18.0324 41.0653C9.27341 30.4913 10.635 14.7267 21.0735 5.85407C23.4473 3.8364 26.086 2.34888 28.8495 1.37908C28.4812 1.31261 28.1099 1.25477 27.7359 1.20578C26.0512 1.42985 24.3648 1.84227 22.7024 2.45517C10.4246 6.98193 4.07918 20.7423 8.55614 33.2022C11.6854 41.9114 19.2682 47.6645 27.7427 48.7931ZM23.842 1.02122C23.3479 1.16894 22.8551 1.33313 22.3643 1.51408C9.55952 6.2351 2.95733 20.5773 7.61788 33.5482C10.4037 41.3013 16.5829 46.8097 23.8382 48.9784C11.1617 48.5328 1 37.9794 1 24.9999C1 12.0191 11.1638 1.46482 23.842 1.02122Z" fill="url(#paint0_radial_79_1260)"/>
<defs>
<radialGradient id="paint0_radial_79_1260" cx="0" cy="0" r="1" gradientUnits="userSpaceOnUse" gradientTransform="translate(40 25) rotate(90) scale(25 40)">
<stop stop-color="white" stop-opacity="0.96"/>
<stop offset="1" stop-color="white" stop-opacity="0.35"/>
</radialGradient>
</defs>
</svg>
