<svg width="83" height="70" viewBox="0 0 83 70" fill="none" xmlns="http://www.w3.org/2000/svg">
<circle cx="49.7065" cy="32.4368" r="27.8" transform="rotate(-10 49.7065 32.4368)" stroke="url(#paint0_linear_79_1225)" stroke-width="0.4"/>
<circle cx="46.1147" cy="35.1011" r="25.8" transform="rotate(-10 46.1147 35.1011)" stroke="url(#paint1_linear_79_1225)" stroke-width="0.4"/>
<circle cx="42.5227" cy="37.7654" r="23.8" transform="rotate(-10 42.5227 37.7654)" stroke="url(#paint2_linear_79_1225)" stroke-width="0.4"/>
<circle cx="38.9309" cy="40.4295" r="21.8" transform="rotate(-10 38.9309 40.4295)" stroke="url(#paint3_linear_79_1225)" stroke-width="0.4"/>
<circle cx="35.3388" cy="43.0938" r="19.8" transform="rotate(-10 35.3388 43.0938)" stroke="url(#paint4_linear_79_1225)" stroke-width="0.4"/>
<circle cx="31.747" cy="45.7581" r="17.8" transform="rotate(-10 31.747 45.7581)" stroke="url(#paint5_linear_79_1225)" stroke-width="0.4"/>
<circle cx="28.1549" cy="48.4222" r="15.8" transform="rotate(-10 28.1549 48.4222)" stroke="url(#paint6_linear_79_1225)" stroke-width="0.4"/>
<circle cx="24.5631" cy="51.0865" r="13.8" transform="rotate(-10 24.5631 51.0865)" stroke="url(#paint7_linear_79_1225)" stroke-width="0.4"/>
<circle cx="19.9864" cy="53.9243" r="11.8" transform="rotate(-10 19.9864 53.9243)" stroke="url(#paint8_linear_79_1225)" stroke-width="0.4"/>
<circle cx="16.3944" cy="56.5884" r="9.8" transform="rotate(-10 16.3944 56.5884)" stroke="url(#paint9_linear_79_1225)" stroke-width="0.4"/>
<circle cx="11.8177" cy="59.4263" r="7.8" transform="rotate(-10 11.8177 59.4263)" stroke="url(#paint10_linear_79_1225)" stroke-width="0.4"/>
<circle cx="8.22564" cy="62.0906" r="5.8" transform="rotate(-10 8.22564 62.0906)" stroke="url(#paint11_linear_79_1225)" stroke-width="0.4"/>
<circle cx="4.63382" cy="64.7546" r="3.8" transform="rotate(-10 4.63382 64.7546)" stroke="url(#paint12_linear_79_1225)" stroke-width="0.4"/>
<defs>
<linearGradient id="paint0_linear_79_1225" x1="49.7065" y1="4.43683" x2="49.7065" y2="60.4368" gradientUnits="userSpaceOnUse">
<stop stop-color="white" stop-opacity="0.18"/>
<stop offset="1" stop-color="white"/>
</linearGradient>
<linearGradient id="paint1_linear_79_1225" x1="46.1147" y1="9.10114" x2="46.1147" y2="61.1011" gradientUnits="userSpaceOnUse">
<stop stop-color="white" stop-opacity="0.18"/>
<stop offset="1" stop-color="white"/>
</linearGradient>
<linearGradient id="paint2_linear_79_1225" x1="42.5227" y1="13.7654" x2="42.5227" y2="61.7654" gradientUnits="userSpaceOnUse">
<stop stop-color="white" stop-opacity="0.18"/>
<stop offset="1" stop-color="white"/>
</linearGradient>
<linearGradient id="paint3_linear_79_1225" x1="38.9309" y1="18.4295" x2="38.9309" y2="62.4295" gradientUnits="userSpaceOnUse">
<stop stop-color="white" stop-opacity="0.18"/>
<stop offset="1" stop-color="white"/>
</linearGradient>
<linearGradient id="paint4_linear_79_1225" x1="35.3388" y1="23.0938" x2="35.3388" y2="63.0938" gradientUnits="userSpaceOnUse">
<stop stop-color="white" stop-opacity="0.18"/>
<stop offset="1" stop-color="white"/>
</linearGradient>
<linearGradient id="paint5_linear_79_1225" x1="31.747" y1="27.7581" x2="31.747" y2="63.7581" gradientUnits="userSpaceOnUse">
<stop stop-color="white" stop-opacity="0.18"/>
<stop offset="1" stop-color="white"/>
</linearGradient>
<linearGradient id="paint6_linear_79_1225" x1="28.1549" y1="32.4222" x2="28.1549" y2="64.4222" gradientUnits="userSpaceOnUse">
<stop stop-color="white" stop-opacity="0.18"/>
<stop offset="1" stop-color="white"/>
</linearGradient>
<linearGradient id="paint7_linear_79_1225" x1="24.5631" y1="37.0865" x2="24.5631" y2="65.0865" gradientUnits="userSpaceOnUse">
<stop stop-color="white" stop-opacity="0.18"/>
<stop offset="1" stop-color="white"/>
</linearGradient>
<linearGradient id="paint8_linear_79_1225" x1="19.9864" y1="41.9243" x2="19.9864" y2="65.9243" gradientUnits="userSpaceOnUse">
<stop stop-color="white" stop-opacity="0.18"/>
<stop offset="1" stop-color="white"/>
</linearGradient>
<linearGradient id="paint9_linear_79_1225" x1="16.3944" y1="46.5884" x2="16.3944" y2="66.5884" gradientUnits="userSpaceOnUse">
<stop stop-color="white" stop-opacity="0.18"/>
<stop offset="1" stop-color="white"/>
</linearGradient>
<linearGradient id="paint10_linear_79_1225" x1="11.8177" y1="51.4263" x2="11.8177" y2="67.4263" gradientUnits="userSpaceOnUse">
<stop stop-color="white" stop-opacity="0.18"/>
<stop offset="1" stop-color="white"/>
</linearGradient>
<linearGradient id="paint11_linear_79_1225" x1="8.22564" y1="56.0906" x2="8.22564" y2="68.0906" gradientUnits="userSpaceOnUse">
<stop stop-color="white" stop-opacity="0.18"/>
<stop offset="1" stop-color="white"/>
</linearGradient>
<linearGradient id="paint12_linear_79_1225" x1="4.63382" y1="60.7546" x2="4.63382" y2="68.7546" gradientUnits="userSpaceOnUse">
<stop stop-color="white" stop-opacity="0.18"/>
<stop offset="1" stop-color="white"/>
</linearGradient>
</defs>
</svg>
