<svg width="72" height="64" viewBox="0 0 72 64" fill="none" xmlns="http://www.w3.org/2000/svg">
<path d="M71.75 18C71.75 22.8249 67.8322 27.2602 61.344 30.5043C54.8709 33.7409 45.9107 35.75 36 35.75C26.0893 35.75 17.1291 33.7409 10.656 30.5043C4.16782 27.2602 0.25 22.8249 0.25 18C0.25 13.1751 4.16782 8.73976 10.656 5.49568C17.1291 2.25909 26.0893 0.25 36 0.25C45.9107 0.25 54.8709 2.25909 61.344 5.49568C67.8322 8.73976 71.75 13.1751 71.75 18Z" stroke="url(#paint0_linear_79_1241)" stroke-width="0.5"/>
<path d="M71.75 20C71.75 24.8249 67.8322 29.2602 61.344 32.5043C54.8709 35.7409 45.9107 37.75 36 37.75C26.0893 37.75 17.1291 35.7409 10.656 32.5043C4.16782 29.2602 0.25 24.8249 0.25 20C0.25 15.1751 4.16782 10.7398 10.656 7.49568C17.1291 4.25909 26.0893 2.25 36 2.25C45.9107 2.25 54.8709 4.25909 61.344 7.49568C67.8322 10.7398 71.75 15.1751 71.75 20Z" stroke="url(#paint1_linear_79_1241)" stroke-width="0.5"/>
<path d="M71.75 22C71.75 26.8249 67.8322 31.2602 61.344 34.5043C54.8709 37.7409 45.9107 39.75 36 39.75C26.0893 39.75 17.1291 37.7409 10.656 34.5043C4.16782 31.2602 0.25 26.8249 0.25 22C0.25 17.1751 4.16782 12.7398 10.656 9.49568C17.1291 6.25909 26.0893 4.25 36 4.25C45.9107 4.25 54.8709 6.25909 61.344 9.49568C67.8322 12.7398 71.75 17.1751 71.75 22Z" stroke="url(#paint2_linear_79_1241)" stroke-width="0.5"/>
<path d="M71.75 24C71.75 28.8249 67.8322 33.2602 61.344 36.5043C54.8709 39.7409 45.9107 41.75 36 41.75C26.0893 41.75 17.1291 39.7409 10.656 36.5043C4.16782 33.2602 0.25 28.8249 0.25 24C0.25 19.1751 4.16782 14.7398 10.656 11.4957C17.1291 8.25909 26.0893 6.25 36 6.25C45.9107 6.25 54.8709 8.25909 61.344 11.4957C67.8322 14.7398 71.75 19.1751 71.75 24Z" stroke="url(#paint3_linear_79_1241)" stroke-width="0.5"/>
<path d="M71.75 26C71.75 30.8249 67.8322 35.2602 61.344 38.5043C54.8709 41.7409 45.9107 43.75 36 43.75C26.0893 43.75 17.1291 41.7409 10.656 38.5043C4.16782 35.2602 0.25 30.8249 0.25 26C0.25 21.1751 4.16782 16.7398 10.656 13.4957C17.1291 10.2591 26.0893 8.25 36 8.25C45.9107 8.25 54.8709 10.2591 61.344 13.4957C67.8322 16.7398 71.75 21.1751 71.75 26Z" stroke="url(#paint4_linear_79_1241)" stroke-width="0.5"/>
<path d="M71.75 28C71.75 32.8249 67.8322 37.2602 61.344 40.5043C54.8709 43.7409 45.9107 45.75 36 45.75C26.0893 45.75 17.1291 43.7409 10.656 40.5043C4.16782 37.2602 0.25 32.8249 0.25 28C0.25 23.1751 4.16782 18.7398 10.656 15.4957C17.1291 12.2591 26.0893 10.25 36 10.25C45.9107 10.25 54.8709 12.2591 61.344 15.4957C67.8322 18.7398 71.75 23.1751 71.75 28Z" stroke="url(#paint5_linear_79_1241)" stroke-width="0.5"/>
<path d="M71.75 30C71.75 34.8249 67.8322 39.2602 61.344 42.5043C54.8709 45.7409 45.9107 47.75 36 47.75C26.0893 47.75 17.1291 45.7409 10.656 42.5043C4.16782 39.2602 0.25 34.8249 0.25 30C0.25 25.1751 4.16782 20.7398 10.656 17.4957C17.1291 14.2591 26.0893 12.25 36 12.25C45.9107 12.25 54.8709 14.2591 61.344 17.4957C67.8322 20.7398 71.75 25.1751 71.75 30Z" stroke="url(#paint6_linear_79_1241)" stroke-width="0.5"/>
<path d="M71.75 32C71.75 36.8249 67.8322 41.2602 61.344 44.5043C54.8709 47.7409 45.9107 49.75 36 49.75C26.0893 49.75 17.1291 47.7409 10.656 44.5043C4.16782 41.2602 0.25 36.8249 0.25 32C0.25 27.1751 4.16782 22.7398 10.656 19.4957C17.1291 16.2591 26.0893 14.25 36 14.25C45.9107 14.25 54.8709 16.2591 61.344 19.4957C67.8322 22.7398 71.75 27.1751 71.75 32Z" stroke="url(#paint7_linear_79_1241)" stroke-width="0.5"/>
<path d="M71.75 34C71.75 38.8249 67.8322 43.2602 61.344 46.5043C54.8709 49.7409 45.9107 51.75 36 51.75C26.0893 51.75 17.1291 49.7409 10.656 46.5043C4.16782 43.2602 0.25 38.8249 0.25 34C0.25 29.1751 4.16782 24.7398 10.656 21.4957C17.1291 18.2591 26.0893 16.25 36 16.25C45.9107 16.25 54.8709 18.2591 61.344 21.4957C67.8322 24.7398 71.75 29.1751 71.75 34Z" stroke="url(#paint8_linear_79_1241)" stroke-width="0.5"/>
<path d="M71.75 36C71.75 40.8249 67.8322 45.2602 61.344 48.5043C54.8709 51.7409 45.9107 53.75 36 53.75C26.0893 53.75 17.1291 51.7409 10.656 48.5043C4.16782 45.2602 0.25 40.8249 0.25 36C0.25 31.1751 4.16782 26.7398 10.656 23.4957C17.1291 20.2591 26.0893 18.25 36 18.25C45.9107 18.25 54.8709 20.2591 61.344 23.4957C67.8322 26.7398 71.75 31.1751 71.75 36Z" stroke="url(#paint9_linear_79_1241)" stroke-width="0.5"/>
<path d="M71.75 38C71.75 42.8249 67.8322 47.2602 61.344 50.5043C54.8709 53.7409 45.9107 55.75 36 55.75C26.0893 55.75 17.1291 53.7409 10.656 50.5043C4.16782 47.2602 0.25 42.8249 0.25 38C0.25 33.1751 4.16782 28.7398 10.656 25.4957C17.1291 22.2591 26.0893 20.25 36 20.25C45.9107 20.25 54.8709 22.2591 61.344 25.4957C67.8322 28.7398 71.75 33.1751 71.75 38Z" stroke="url(#paint10_linear_79_1241)" stroke-width="0.5"/>
<path d="M71.75 40C71.75 44.8249 67.8322 49.2602 61.344 52.5043C54.8709 55.7409 45.9107 57.75 36 57.75C26.0893 57.75 17.1291 55.7409 10.656 52.5043C4.16782 49.2602 0.25 44.8249 0.25 40C0.25 35.1751 4.16782 30.7398 10.656 27.4957C17.1291 24.2591 26.0893 22.25 36 22.25C45.9107 22.25 54.8709 24.2591 61.344 27.4957C67.8322 30.7398 71.75 35.1751 71.75 40Z" stroke="url(#paint11_linear_79_1241)" stroke-width="0.5"/>
<path d="M71.75 42C71.75 46.8249 67.8322 51.2602 61.344 54.5043C54.8709 57.7409 45.9107 59.75 36 59.75C26.0893 59.75 17.1291 57.7409 10.656 54.5043C4.16782 51.2602 0.25 46.8249 0.25 42C0.25 37.1751 4.16782 32.7398 10.656 29.4957C17.1291 26.2591 26.0893 24.25 36 24.25C45.9107 24.25 54.8709 26.2591 61.344 29.4957C67.8322 32.7398 71.75 37.1751 71.75 42Z" stroke="url(#paint12_linear_79_1241)" stroke-width="0.5"/>
<path d="M71.75 44C71.75 48.8249 67.8322 53.2602 61.344 56.5043C54.8709 59.7409 45.9107 61.75 36 61.75C26.0893 61.75 17.1291 59.7409 10.656 56.5043C4.16782 53.2602 0.25 48.8249 0.25 44C0.25 39.1751 4.16782 34.7398 10.656 31.4957C17.1291 28.2591 26.0893 26.25 36 26.25C45.9107 26.25 54.8709 28.2591 61.344 31.4957C67.8322 34.7398 71.75 39.1751 71.75 44Z" stroke="url(#paint13_linear_79_1241)" stroke-width="0.5"/>
<path d="M71.75 46C71.75 50.8249 67.8322 55.2602 61.344 58.5043C54.8709 61.7409 45.9107 63.75 36 63.75C26.0893 63.75 17.1291 61.7409 10.656 58.5043C4.16782 55.2602 0.25 50.8249 0.25 46C0.25 41.1751 4.16782 36.7398 10.656 33.4957C17.1291 30.2591 26.0893 28.25 36 28.25C45.9107 28.25 54.8709 30.2591 61.344 33.4957C67.8322 36.7398 71.75 41.1751 71.75 46Z" stroke="url(#paint14_linear_79_1241)" stroke-width="0.5"/>
<defs>
<linearGradient id="paint0_linear_79_1241" x1="36" y1="0" x2="36" y2="36" gradientUnits="userSpaceOnUse">
<stop stop-color="white"/>
<stop offset="1" stop-color="#807D7D" stop-opacity="0.54"/>
</linearGradient>
<linearGradient id="paint1_linear_79_1241" x1="36" y1="2" x2="36" y2="38" gradientUnits="userSpaceOnUse">
<stop stop-color="white"/>
<stop offset="1" stop-color="#807D7D" stop-opacity="0.54"/>
</linearGradient>
<linearGradient id="paint2_linear_79_1241" x1="36" y1="4" x2="36" y2="40" gradientUnits="userSpaceOnUse">
<stop stop-color="white"/>
<stop offset="1" stop-color="#807D7D" stop-opacity="0.54"/>
</linearGradient>
<linearGradient id="paint3_linear_79_1241" x1="36" y1="6" x2="36" y2="42" gradientUnits="userSpaceOnUse">
<stop stop-color="white"/>
<stop offset="1" stop-color="#807D7D" stop-opacity="0.54"/>
</linearGradient>
<linearGradient id="paint4_linear_79_1241" x1="36" y1="8" x2="36" y2="44" gradientUnits="userSpaceOnUse">
<stop stop-color="white"/>
<stop offset="1" stop-color="#807D7D" stop-opacity="0.54"/>
</linearGradient>
<linearGradient id="paint5_linear_79_1241" x1="36" y1="10" x2="36" y2="46" gradientUnits="userSpaceOnUse">
<stop stop-color="white"/>
<stop offset="1" stop-color="#807D7D" stop-opacity="0.54"/>
</linearGradient>
<linearGradient id="paint6_linear_79_1241" x1="36" y1="12" x2="36" y2="48" gradientUnits="userSpaceOnUse">
<stop stop-color="white"/>
<stop offset="1" stop-color="#807D7D" stop-opacity="0.54"/>
</linearGradient>
<linearGradient id="paint7_linear_79_1241" x1="36" y1="14" x2="36" y2="50" gradientUnits="userSpaceOnUse">
<stop stop-color="white"/>
<stop offset="1" stop-color="#807D7D" stop-opacity="0.54"/>
</linearGradient>
<linearGradient id="paint8_linear_79_1241" x1="36" y1="16" x2="36" y2="52" gradientUnits="userSpaceOnUse">
<stop stop-color="white"/>
<stop offset="1" stop-color="#807D7D" stop-opacity="0.54"/>
</linearGradient>
<linearGradient id="paint9_linear_79_1241" x1="36" y1="18" x2="36" y2="54" gradientUnits="userSpaceOnUse">
<stop stop-color="white"/>
<stop offset="1" stop-color="#807D7D" stop-opacity="0.54"/>
</linearGradient>
<linearGradient id="paint10_linear_79_1241" x1="36" y1="20" x2="36" y2="56" gradientUnits="userSpaceOnUse">
<stop stop-color="white"/>
<stop offset="1" stop-color="#807D7D" stop-opacity="0.54"/>
</linearGradient>
<linearGradient id="paint11_linear_79_1241" x1="36" y1="22" x2="36" y2="58" gradientUnits="userSpaceOnUse">
<stop stop-color="white"/>
<stop offset="1" stop-color="#807D7D" stop-opacity="0.54"/>
</linearGradient>
<linearGradient id="paint12_linear_79_1241" x1="36" y1="24" x2="36" y2="60" gradientUnits="userSpaceOnUse">
<stop stop-color="white"/>
<stop offset="1" stop-color="#807D7D" stop-opacity="0.54"/>
</linearGradient>
<linearGradient id="paint13_linear_79_1241" x1="36" y1="26" x2="36" y2="62" gradientUnits="userSpaceOnUse">
<stop stop-color="white"/>
<stop offset="1" stop-color="#807D7D" stop-opacity="0.54"/>
</linearGradient>
<linearGradient id="paint14_linear_79_1241" x1="36" y1="28" x2="36" y2="64" gradientUnits="userSpaceOnUse">
<stop stop-color="white"/>
<stop offset="1" stop-color="#807D7D" stop-opacity="0.54"/>
</linearGradient>
</defs>
</svg>
