<svg width="18" height="18" viewBox="0 0 18 18" fill="none" xmlns="http://www.w3.org/2000/svg">
<path d="M7 5.5H11V3.5C11 1.567 12.567 0 14.5 0C16.433 0 18 1.567 18 3.5C18 5.433 16.433 7 14.5 7H12.5V11H14.5C16.433 11 18 12.567 18 14.5C18 16.433 16.433 18 14.5 18C12.567 18 11 16.433 11 14.5V12.5H7V14.5C7 16.433 5.433 18 3.5 18C1.567 18 0 16.433 0 14.5C0 12.567 1.567 11 3.5 11H5.5V7H3.5C1.567 7 0 5.433 0 3.5C0 1.567 1.567 0 3.5 0C5.433 0 7 1.567 7 3.5V5.5ZM5.5 5.5V3.5C5.5 2.5 4.77792 1.5 3.5 1.5C2.22208 1.5 1.5 2.23062 1.5 3.5C1.5 4.76938 2.5 5.5 3.5 5.5H5.5ZM5.5 12.5H3.5C2.5 12.5 1.5 13.5 1.5 14.5C1.5 15.5 2 16.5 3.5 16.5C5 16.5 5.5 15.3284 5.5 14.5V12.5ZM12.5 5.5H14.5C15.5 5.5 16.5 4.81583 16.5 3.5C16.5 2.18417 15.8214 1.5 14.5 1.5C13.1786 1.5 12.5 2.5 12.5 3.5V5.5ZM12.5 12.5V14.5C12.5 15.5 13.1669 16.5 14.5 16.5C15.8331 16.5 16.5 15.7263 16.5 14.5C16.5 13.2737 16 12.5 14.5 12.5H12.5ZM7 7V11H11V7H7Z" fill="white"/>
</svg>
