<svg width="20" height="20" viewBox="0 0 20 20" fill="none" xmlns="http://www.w3.org/2000/svg">
<path d="M10 20C4.47715 20 0 15.5228 0 10C0 4.47715 4.47715 0 10 0C15.5228 0 20 4.47715 20 10C20 15.5228 15.5228 20 10 20ZM7.71002 18.5C6.74743 16.4585 6.15732 13.3742 6.02731 11H1.5C1.89611 14.1765 4.71639 17.6073 7.71002 18.5ZM7.5 11C7.6504 13.4388 8.8778 16.4777 10 18.5C11.1222 16.4777 12.3496 13.4388 12.5 11H7.5ZM18.5 11H13.9727C13.8427 13.3742 13.2526 16.4585 12.29 18.5C15.2836 17.6073 18.1039 14.1765 18.5 11ZM1.5 9H6.02731C6.15732 6.62577 6.74743 3.54151 7.71002 1.5C4.71639 2.39277 1.89611 5.8235 1.5 9ZM7.5 9H12.5C12.3496 6.56122 11.1222 3.52226 10 1.5C8.8778 3.52226 7.6504 6.56122 7.5 9ZM12.29 1.5C13.2526 3.54151 13.8427 6.62577 13.9727 9H18.5C18.1039 5.8235 15.2836 2.39277 12.29 1.5Z" fill="white"/>
</svg>
