<svg width="20" height="20" viewBox="0 0 20 20" fill="none" xmlns="http://www.w3.org/2000/svg">
<path d="M5.82929 17.7546C5.41746 18.9198 4.30622 20 3 20C1.34315 20 0 18.6569 0 17C0 15.6938 1.04939 14.5825 2.21458 14.1707V5.82929C1.04939 5.41746 0 4.30622 0 3C0 1.34315 1.34315 0 3 0C4.30622 0 5.41746 1.12657 5.82929 2.29176H14.1707C14.5825 1.12657 15.6938 0 17 0C18.6569 0 20 1.34315 20 3C20 4.30622 18.9291 5.41746 17.7639 5.82929V14.1707C18.9291 14.5825 20 15.6938 20 17C20 18.6569 18.6569 20 17 20C15.6938 20 14.5825 18.9198 14.1707 17.7546H5.82929ZM5.82929 16.2867H14.1707C14.472 15.4343 15.3991 14.472 16.2515 14.1707V5.82929C15.3991 5.52801 14.472 4.61805 14.1707 3.76564H5.82929C5.52801 4.61805 4.62819 5.52801 3.77578 5.82929V14.1707C4.62819 14.472 5.52801 15.4343 5.82929 16.2867ZM3 4.5C3.86556 4.5 4.5 3.83977 4.5 3C4.5 2.16023 3.81458 1.5 3 1.5C2.18542 1.5 1.5 2.16023 1.5 3C1.5 3.83977 2.13444 4.5 3 4.5ZM17 4.5C17.8551 4.5 18.5 3.76564 18.5 3C18.5 2.12352 17.8018 1.5 17 1.5C16.1982 1.5 15.5 2.10574 15.5 3C15.5 3.89426 16.1449 4.5 17 4.5ZM17 18.5C17.8196 18.5 18.5 17.8201 18.5 17C18.5 16.1799 17.8196 15.5 17 15.5C16.1804 15.5 15.5 16.2066 15.5 17C15.5 17.7934 16.1804 18.5 17 18.5ZM3 18.5C3.8343 18.5 4.5 17.7546 4.5 17C4.5 16.2867 3.90543 15.5 3 15.5C2.21458 15.5 1.5 16.1799 1.5 17C1.5 17.8201 2.1657 18.5 3 18.5Z" fill="white"/>
</svg>
