<svg width="20" height="16" viewBox="0 0 20 16" fill="none" xmlns="http://www.w3.org/2000/svg">
<path d="M10.0004 12C12.2095 12 14.0004 10.2091 14.0004 8C14.0004 5.79086 12.2095 4 10.0004 4C7.79123 4 6.00037 5.79086 6.00037 8C6.00037 10.2091 7.79123 12 10.0004 12ZM19.0049 0.00292969H1.00488C0.452603 0.00292969 0.00488281 0.45064 0.00488281 1.00293V15.0029C0.00488281 15.5552 0.452603 16.0029 1.00488 16.0029H19.0049C19.5572 16.0029 20.0049 15.5552 20.0049 15.0029V1.00293C20.0049 0.45064 19.5572 0.00292969 19.0049 0.00292969ZM1.5 11.6436V4.3564C2.62577 4.01969 4.01836 2.62599 4.35455 1.5H15.6444C15.9815 2.629 17.3699 4.02175 18.5 4.3564V11.6436C17.368 11.9788 15.9802 13.3682 15.6444 14.5H4.35455C4.01969 13.3713 2.62773 11.9809 1.5 11.6436Z" fill="white"/>
</svg>
